<svg xmlns="http://www.w3.org/2000/svg" viewBox="0 0 32 32">
  <path d="M13.528 26.08C9.16 24.318 5.5 18.226 5.5 12.56 5.5 6.238 10.305 1.5 16 1.5s10.5 4.738 10.5 11.06c0 5.667-3.66 11.759-8.028 13.52l1.667 1.944c.834.973.143 2.476-1.139 2.476h-6c-1.282 0-1.973-1.503-1.139-2.476l1.667-1.945zM16 23.581c3.435 0 7.5-5.785 7.5-11.022 0-4.656-3.453-8.06-7.5-8.06s-7.5 3.404-7.5 8.06c0 5.237 4.065 11.022 7.5 11.022zm6.328-12.264a1.5 1.5 0 11-2.941.595l-.002-.009c-.28-1.403-1.056-2.482-2.063-3.018a1.5 1.5 0 111.416-2.644l-.008-.004c1.817.966 3.144 2.81 3.596 5.08z"/>
</svg>
