<svg fill="none" xmlns="http://www.w3.org/2000/svg" viewBox="0 0 172 42">
  <path d="M8.556 35.045H5.04c1.172 1.7 2.52 3.926 2.52 5.977H0V0h8.322v5.743c0 6.974-1.758 9.728-3.224 12.014h3.517c1.289-2.989 3.809-6.915 9.845-6.915 7.15 0 12.072 6.27 12.072 15.53 0 9.259-4.922 15.588-12.072 15.588-6.212 0-8.439-3.985-9.904-6.915zM21.8 26.37c0-6.856-2.988-9.259-6.856-9.259-4.161 0-6.974 3.047-6.974 9.26 0 6.211 2.872 9.259 6.974 9.259 3.868 0 6.856-2.403 6.856-9.26zM34.81 26.313c0-9.2 6.33-15.471 14.827-15.471 9.845 0 15.002 7.735 14.182 17.522H43.132c.235 5.157 2.989 7.267 6.564 7.267 3.75 0 5.567-2.345 6.798-5.099l7.442 2.872c-1.64 3.75-5.333 8.556-14.24 8.556-9.025 0-14.886-6.036-14.886-15.647zm20.805-3.81c-.352-3.633-2.462-5.684-5.978-5.684-3.34 0-5.626 1.993-6.212 5.684h12.19zM70.147 0h8.322v41.022h-8.322V0zM84.623 26.313c0-9.2 6.329-15.471 14.826-15.471 9.846 0 15.003 7.735 14.182 17.522H92.944c.235 5.157 2.99 7.267 6.564 7.267 3.751 0 5.567-2.345 6.798-5.099l7.442 2.872c-1.64 3.75-5.332 8.556-14.24 8.556-9.025 0-14.885-6.036-14.885-15.647zm20.804-3.81c-.352-3.633-2.461-5.684-5.978-5.684-3.34 0-5.626 1.993-6.212 5.684h12.19zM118.026 26.313c0-9.2 6.329-15.471 14.826-15.471 9.846 0 15.003 7.735 14.182 17.522h-20.686c.234 5.157 2.988 7.267 6.563 7.267 3.751 0 5.567-2.345 6.798-5.099l7.443 2.872c-1.641 3.75-5.333 8.556-14.241 8.556-9.025 0-14.885-6.036-14.885-15.647zm20.804-3.81c-.352-3.633-2.461-5.684-5.978-5.684-3.34 0-5.625 1.993-6.211 5.684h12.189zM155.65 18.05h-5.685v-6.33h5.685V7.678c0-4.571 2.578-7.677 7.325-7.677H172v6.622h-5.45c-1.817 0-2.579.82-2.579 2.579v2.52h6.798v6.329h-6.798v22.972h-8.321V18.05z" fill="#000"/>
</svg>
