<svg fill="none" xmlns="http://www.w3.org/2000/svg" viewBox="0 0 62 14">
  <path d="M.786 13.965l.833-3.924H0V8.669h1.906l.71-3.345H0V3.952h2.903L3.736 0h1.438L4.34 3.952h3.018L8.19 0h1.447l-.833 3.952h1.657v1.372H8.518l-.72 3.345h2.664v1.372H7.511l-.834 3.924H5.241l.824-3.924h-3.01l-.833 3.924H.786zM3.344 8.67h3.008l.719-3.345H4.052L3.344 8.67zM11.712 7.132c0-4.057 3.12-6.868 6.887-6.868 3.492 0 5.474 1.962 6.18 3.962L22.778 5c-.667-1.736-1.903-2.981-4.219-2.981-2.413 0-4.748 1.735-4.748 5.094 0 3.282 1.923 5.17 4.67 5.17 2.649 0 4.12-1.737 4.238-3.321h-4.748V7.226h6.769v6.509h-1.903c0-1.019.392-2.075.765-2.811h-.922c-.373.98-1.55 3.075-4.768 3.075-3.63.001-6.2-2.641-6.2-6.867zM27.977.528h9.988v1.736H29.94v4.188h6.318V8.17H29.94v5.566h-1.963V.528zM39.613 11.66c3.826-2.264 6.985-4.453 6.985-7.094 0-1.717-1.119-2.604-2.492-2.604-1.491 0-2.63 1.038-2.63 2.906l-1.981-.265c.02-2.509 1.766-4.339 4.63-4.339 2.845 0 4.533 1.736 4.533 4.094 0 1.415-.51 2.623-1.433 3.68-1.177 1.301-3.276 2.622-6.004 4.093l.491.717c.706-.472 1.472-.849 2.924-.849h4.179v1.736h-9.202V11.66zM51.013 7.094c0-4.528 2.491-6.83 5.513-6.83C59.528.264 62 2.566 62 7.094c0 4.509-2.217 6.905-5.474 6.905-3.277.001-5.514-2.396-5.514-6.905zm8.927 0c0-3.17-1.354-5.15-3.414-5.15-2.1 0-3.453 1.98-3.453 5.15 0 3.396 1.314 5.226 3.453 5.226 2.1 0 3.414-1.811 3.414-5.226z" fill="#000"/>
</svg>
