<svg version="1.1" id="Laag_1" xmlns="http://www.w3.org/2000/svg" x="0" y="0" viewBox="0 0 396.9 280.9" xml:space="preserve">
  <path d="M370.5 280.6H26.4C11.9 280.6 0 268.8 0 254.3V26.4C0 11.9 11.9 0 26.4 0h344.1c14.5 0 26.4 11.9 26.4 26.4v227.9c0 14.5-11.9 26.3-26.4 26.3z" fill="#009de0"/>
  <path class="st1" d="M76 129.8c10.5 2.6 16.4 7.7 18.2 17.7 2.7 15.4-7.7 28.8-27.9 32.3-3.4.6-6.5.8-9.4.6-1.6 1.5-2.4 3.7-2.1 5.8.5 2.7 2.3 5 10 3.6l12.1-2.1c17.9-3.2 31.1 4.4 33.4 17.5 2.8 16-9.4 28.1-35.8 32.8-29 5.1-38.5-2.9-41.3-18.7l19-3.3c1.3 7.5 5.2 10.2 20.3 7.5 14.6-2.6 17.8-7.3 16.8-13-.9-5.4-5.6-8-13.9-6.5l-11.6 2.1c-16.6 2.9-24.7-3-26.2-11.4-1-5.7 1.6-11.8 6.6-16.4-10.8-3.6-16.2-9.9-18-20.1-3.1-17.5 8.8-31.1 28.7-34.6 18.3-2.8 26.7-9 35.3-16.1l8.1 15.4c-5.4 3.2-12.7 5.3-22.3 6.9zm-28.7 24.3c1.6 9.1 7.6 13.6 15.7 12.2 8.5-1.5 12.1-7.4 10.4-17.1-1.7-9.4-6.8-13.1-15.6-11.6-8 1.5-12 7.9-10.5 16.5zM180.4 151.3L131 160c4.2 15 12.1 18.2 22.3 16.4 6.7-1.2 12-4.3 18-10.3l10.9 10.4c-6.7 7.6-15.7 13.9-28.1 16-25.4 4.5-41.6-9.9-46-34.7-4.2-23.9 5.4-44.7 28.5-48.8 22.4-4 38.3 8.6 42.8 33.9.4 2.8.7 6.2 1 8.4zm-23.2-10.5c-2.1-11.9-7.5-19-17.7-17.2-8.4 1.5-12.6 8.1-11 23.2l28.8-5.1-.1-.9zM258.5 112.3l10.2 57.6-21.2 3.7-9.5-54.1c-1.6-9.1-5.3-11.1-10.7-10.1-6.1 1.1-10.2 6-13.3 13.7l9.6 54.6-21.2 3.7-14-79.1 18.4-3.2 3.4 9.7c5-9 11.9-14.9 22-16.7 13.8-2.2 23.6 5.3 26.3 20.2zM316 164.1c-16.5 2.7-26.5-5.2-29.6-22.8l-7-39.4-11.8 2.1-2.6-15 11.8-2.1-3.1-17.3 20.8-6.3 3.5 19.9 18.2-3.2.5 15.3-16.1 2.8 6.9 39c1.4 7.8 4.4 10.3 9.8 9.4 2.8-.5 5.5-1.9 8.5-4.4l9.7 12.3c-5.1 5-12.5 8.4-19.5 9.7zM361.2 84.9c1.2 7-3.4 13.8-10.6 15.1-7 1.2-13.7-3.6-15-10.6-1.2-6.9 3.4-13.7 10.5-14.9 7.2-1.3 13.9 3.5 15.1 10.4zM369.6 138.8c1.2 7-3.4 13.8-10.6 15.1-7 1.2-13.7-3.6-15-10.6-1.2-6.9 3.4-13.7 10.5-14.9 7.2-1.3 13.9 3.5 15.1 10.4z"/>
</svg>
